<svg xmlns="http://www.w3.org/2000/svg" xmlns:xlink="http://www.w3.org/1999/xlink" viewBox="-150 160.7 197 179"><style><![CDATA[.d{fill:#fff}.e{fill:#ffcadd}.f{enable-background:new}.g{fill:#231f20}.h{opacity:.13}.i{fill:#f97399}.j{fill:#fc3768}.k{fill:#fc668e}.l{fill:#f9dce7}]]></style><linearGradient id="A" gradientUnits="userSpaceOnUse" x1="21.252" y1="239.69" x2="-133.904" y2="268.36"><stop offset="0" stop-color="#fda6c3"/><stop offset=".33" stop-color="#fd9ebd"/><stop offset=".828" stop-color="#fc8aae"/><stop offset="1" stop-color="#fc81a7"/></linearGradient><path d="M-66.6 338.2c-8.8 0-18.1-.6-27.6-1.9-25.8-3.3-42-12.2-49.5-27-10.8-21.5-3-55.5 24-104.1 11.9-21.4 31.5-33.7 53.6-33.7 12.1 0 24.3 3.7 35.3 10.8l1.5 1c31.9 20.4 43.8 28 66.6 63.9 7.3 11.4 9.5 23 6.7 34.5-3.4 13.7-13.9 26.3-29.6 35.4-24.4 14.2-50.9 21.1-81 21.1z" fill="url(#A)"/><g class="d"><path d="M-66 173.2c11.7 0 23.6 3.5 34.5 10.5 32.8 21 44.7 28.3 67.7 64.4 17.5 27.5 2.6 53.2-22.3 67.7-26.8 15.5-54.1 20.9-80.3 20.9-9.3 0-18.5-.7-27.4-1.8-55.8-7.2-72.9-41.4-24.3-128.8 12.1-22.2 31.7-32.9 52.1-32.9m0-3.2c-22.8 0-42.8 12.6-55 34.5-27.3 49-35.2 83.5-24.1 105.5 7.7 15.3 24.3 24.5 50.7 27.9 9.6 1.2 18.9 1.9 27.8 1.9 30.3 0 57.1-7 81.9-21.3 16.1-9.3 26.9-22.2 30.3-36.4 2.9-11.9.6-23.9-6.9-35.7-23-36.2-35-43.8-67.1-64.4l-1.5-1c-11.2-7.2-23.7-11-36.1-11z"/><path d="M-98.9 315.7c-.2 0-.5-.1-.7-.2l-4.1-2c-.5-.3-.9-.8-.9-1.4l.6-128.6.1-.8v-.3l.2-.8c.5-1.5 1.4-2.7 2.6-3.5.4-.2.7-.4 1-.5.4-.2.9-.3 1.2-.3l83.5-15c.4 0 .6-.1.9-.1h.1c.4 0 .8.1 1.1.2.1 0 .1 0 .2.1l.6.3 4.3 2.1c.1 0 .2.1.3.2 1.3.8 2.2 2.3 2.1 4.1l-.1 14.2-.3 57.2.3.6.2.6c.1.4.3.8.4 1.2l.2.7.3 1.1c.1.2.1.5.2.7l.3 1.1c.1.3.1.5.2.8.1.4.2.8.2 1.1s.1.5.1.8c.1.4.1.8.2 1.2 0 .3.1.5.1.8.1.4.1.8.1 1.3l.1.7c0 .5.1 1 .1 1.4v2.7c0 6-1.2 12-3.3 17.9l-.1 22.9c0 .8-.5 1.4-1.3 1.5l-25 4.4c-2.5 1-5 1.8-7.5 2.2l-1.7.3-.5.1c-.4 0-.8.1-1.3.1h-.5c-.6 0-1.1.1-1.7.1s-1.2 0-1.8-.1l-51.1 9c.3-.1.2-.1.1-.1z"/><path d="M-14.3 163.8h.1c.2 0 .5 0 .7.1l.6.3 4.3 2.1c.9.5 1.6 1.5 1.6 2.8l-.1 13.9-.3 57.8c.1.3.2.6.4.9.1.2.1.4.2.6.1.4.3.7.4 1.1.1.2.1.4.2.7l.3 1.1c.1.2.1.5.2.7l.3 1.1c.1.2.1.5.2.7.1.4.2.7.2 1.1 0 .3.1.5.1.8.1.4.1.8.2 1.1 0 .3.1.5.1.8.1.4.1.8.1 1.2 0 .2 0 .5.1.7 0 .5.1.9.1 1.4v2.6c0 6.1-1.2 12-3.3 17.6l-.1 23.2-25.2 4.4c-2.4 1-4.8 1.7-7.3 2.2-.6.1-1.1.2-1.7.2-.2 0-.3 0-.5.1-.4 0-.8.1-1.2.1h-4l-51.3 9.1-4.1-2 .6-128.4.1-.8.2-.8c.4-1.1 1.1-2 2-2.7.2-.1.5-.3.7-.4s.9-.2.9-.2l83.5-15c.3-.2.5-.2.7-.2m0-3.1c-.3 0-.7 0-1 .1h-.2l-83.5 15c-.7.1-1.2.3-1.6.5-.3.2-.7.3-1 .6l-.1.1c-1.5 1-2.6 2.5-3.2 4.2 0 .1 0 .1-.1.2l-.3.7c0 .2-.1.3-.1.5l-.1.8v6.5l-.6 122.2c0 1.2.7 2.3 1.7 2.8l4.1 2c.4.2.9.3 1.4.3h.5l51-9h1.7c.5 0 1.1 0 1.8-.1h.5c.4 0 .9-.1 1.3-.1h.5c.7-.1 1.3-.2 1.8-.3 2.6-.5 5.2-1.2 7.7-2.2l24.8-4.4c1.5-.3 2.6-1.5 2.6-3l.1-22.6c2.2-5.9 3.3-12 3.3-18.1v-2.8c0-.5-.1-1-.1-1.5v-.7c0-.5-.1-.9-.1-1.3 0-.3-.1-.5-.1-.8-.1-.4-.1-.8-.2-1.2 0-.3-.1-.6-.1-.8-.1-.4-.2-.8-.2-1.2-.1-.3-.1-.5-.2-.8l-.3-1.2c-.1-.2-.1-.5-.2-.8-.1-.4-.2-.8-.4-1.2l-.1-.2c-.1-.2-.1-.3-.2-.5-.1-.4-.3-.8-.4-1.2l-.1-.2c0-.1-.1-.3-.1-.4s-.1-.2-.1-.4l.3-57.1.1-13.9c0-2.3-1.1-4.3-2.8-5.4-.1-.1-.3-.2-.4-.3l-4.3-2.1-.9-.3c-.1 0-.2-.1-.3-.1-.5-.2-1.1-.3-1.8-.3z"/></g><linearGradient id="B" gradientUnits="userSpaceOnUse" x1="-13.255" y1="225.15" x2="-94.171" y2="225.15"><stop offset="0" stop-color="#feb7cb"/><stop offset="1" stop-color="#fd8eae"/></linearGradient><path d="M-11.3 173.5v-6.4l2.8-.9-4.3-2.1-.6-.3c-.2-.1-.5-.1-.7-.1h-.8l-83.5 15 86.5 107.9.6-113.1z" fill="url(#B)"/><linearGradient id="C" gradientUnits="userSpaceOnUse" x1="-57.546" y1="189.72" x2="-57.546" y2="310.782"><stop offset="0" stop-color="#fd84a7"/><stop offset="1" stop-color="#fc5880"/></linearGradient><path d="M-102.3 183.8l-.1 6.1-.6 122.3 4.1 2 .3-6.5 86.6-15.5v-71.8l-90.3-36.6z" fill="url(#C)"/><path d="M-98.4 178.8h-.2c-.3 0-.5.1-.8.2-.2.1-.5.2-.7.4-.9.6-1.6 1.6-2 2.7l-.2.8-.1.8 82.3 36.7v-6.8l-78.3-34.8z" fill="#feb7cb"/><path d="M-9.7 169.3l1.3-2.9-1.7-.9h-.1l-84.9 15c-2 .3-3.6 2.4-3.6 4.7l-.6 128.7.4.2 89-130.1.2-14.7z" fill="#fcd0dd"/><linearGradient id="D" gradientUnits="userSpaceOnUse" x1="-10.482" y1="240.066" x2="-95.179" y2="240.066"><stop offset="0" stop-color="#fecbda"/><stop offset="1" stop-color="#fd92b1"/></linearGradient><path d="M-7 169.1c0-2-1.4-3.4-3.1-3l-84.9 15c-1.7.3-3.1 2.2-3.2 4.1v8.8l-.7 120.1L-7.7 298-7 169.1z" fill="url(#D)"/><linearGradient id="E" gradientUnits="userSpaceOnUse" x1="-52.996" y1="192.415" x2="-52.996" y2="297.04"><stop offset="0" stop-color="#fff"/><stop offset="1" stop-color="#f5f9fe"/></linearGradient><path d="M-96.8 195.3l88.3-15.6-.7 117.1-88.2 15.6.6-117.1z" fill="url(#E)"/><linearGradient id="F" gradientUnits="userSpaceOnUse" x1="-59.69" y1="198.421" x2="-46.411" y2="292.902"><stop offset="0" stop-color="#fec3d3"/><stop offset="1" stop-color="#78dc95"/></linearGradient><path d="M-93.6 198.4l81.9-14.5-.7 109.8-81.8 14.5.6-109.8z" fill="url(#F)"/><use xlink:href="#Q" fill="#78cc64"/><use xlink:href="#R" class="i"/><use xlink:href="#Q" x="-13" y="2.3" fill="#feb7cb"/><use xlink:href="#R" x="-13" y="2.3" class="i"/><use xlink:href="#Q" x="-6.5" y="1.2" fill="#eac242"/><path d="M-86.2 183.2c1 0 1.7.8 1.7 2 0 1.3-.9 2.5-2 2.7h-.3c-1 0-1.7-.8-1.7-2 0-1.3.9-2.5 2-2.7.1.1.2 0 .3 0m0-.4h-.4c-1.3.2-2.4 1.6-2.4 3.1 0 .7.2 1.4.7 1.8.4.4.9.6 1.4.6h.4c1.3-.2 2.4-1.6 2.4-3.1 0-.7-.2-1.4-.7-1.8-.3-.4-.8-.6-1.4-.6z" class="i"/><use xlink:href="#S" class="f g h"/><g class="d"><path d="M-45.7 305.6c-4.6 0-8.9-1-12.9-3h-.1s-4.8-2.4-4.8-2.5c-10.8-5.6-17.5-18-17.4-32.6.1-22.8 16.4-44.3 36.3-47.8 1.8-.3 3.7-.5 5.5-.5 4.4 0 8.5.9 12.4 2.8h.1l5 2.5h.1c11 5.5 17.8 18 17.7 32.7-.1 22.8-16.4 44.3-36.3 47.8-1.8.4-3.7.6-5.6.6z"/><path d="M-39.1 219.6c4.4 0 8.5 1 12.3 2.8 0 0 .8.4.9.4l4.1 2.1c10.6 5.2 17.7 17.2 17.6 32.4-.1 22.7-16.2 43.9-36 47.4-1.8.3-3.7.5-5.4.5-4.6 0-8.9-1.1-12.8-3l-4.8-2.4c-10.4-5.3-17.4-17.2-17.3-32.2.1-22.8 16.2-44.1 35.9-47.5 1.9-.4 3.7-.5 5.5-.5m0-.8c-1.8 0-3.7.2-5.6.5-20 3.5-36.5 25.1-36.6 48.2-.1 14.7 6.7 27.3 17.6 32.9h.1l4.8 2.4h.1c4 2 8.4 3.1 13 3.1 1.8 0 3.7-.2 5.6-.5 20.1-3.5 36.5-25.1 36.6-48.2.1-14.8-6.8-27.5-17.9-33.1 0 0-.1 0-.1-.1l-4.1-1.9c-.1-.1-.9-.4-.9-.4h-.1c-3.9-2-8.1-2.9-12.5-2.9z"/></g><linearGradient id="G" gradientUnits="userSpaceOnUse" x1="-31.053" y1="224.137" x2="-59.065" y2="299.556"><stop offset="0" stop-color="#dbf8e5"/><stop offset=".38" stop-color="#76de94"/><stop offset=".892" stop-color="#1f8431"/></linearGradient><path d="M-22.3 225.1l.4-.3-4.1-2.1c-.1-.1-.2-.1-.3-.2l-.5-.3c-5.2-2.5-11.2-3.4-17.7-2.3-19.7 3.5-35.8 24.7-35.9 47.4-.1 15 6.8 26.9 17.3 32.2l4.8 2.4-.1-.6c4.2 1.2 8.7 1.5 13.5.7 19.7-3.5 35.8-24.7 36-47.4-.1-12.7-5.3-23.4-13.4-29.5z" fill="url(#G)"/><linearGradient id="H" gradientUnits="userSpaceOnUse" x1="-33.742" y1="219.266" x2="-71.575" y2="292.932"><stop offset="0" stop-color="#a8ecbd"/><stop offset="1" stop-color="#65c67f"/></linearGradient><use xlink:href="#S" x="12.7" y="7.3" fill="url(#H)"/><linearGradient id="I" gradientUnits="userSpaceOnUse" x1="-67.978" y1="270.975" x2="-11.811" y2="256.142"><stop offset="0" stop-color="#adefc1"/><stop offset="1" stop-color="#d9f9e2"/></linearGradient><path d="M-34.3 225c6.8 0 13 2.6 17.9 7.4 6 6 9.2 14.8 9.2 24.8-.1 21.3-15.1 41.2-33.5 44.4-1.7.3-3.3.4-4.9.4-6.8 0-13-2.6-17.9-7.4-6-6-9.2-14.8-9.1-24.8 0-21.2 15-41.1 33.3-44.4 1.7-.2 3.4-.4 5-.4m0-3c-1.8 0-3.6.2-5.4.5-19.8 3.5-35.9 24.7-36 47.4-.1 20.6 12.9 35.3 30 35.3 1.8 0 3.6-.2 5.4-.5 19.7-3.5 35.8-24.7 36-47.4.1-20.6-12.9-35.3-30-35.3z" fill="url(#I)"/><linearGradient id="J" gradientUnits="userSpaceOnUse" x1="-71.383" y1="249.648" x2="-8.763" y2="277.528"><stop offset=".345" stop-color="#f1fdf4"/><stop offset=".446" stop-color="#b8f1ca"/></linearGradient><path d="M-34.3 222v.7c7.5 0 14.2 2.8 19.5 8.1 6.4 6.4 9.9 15.8 9.8 26.5-.1 22.3-16 43.3-35.4 46.7-1.8.3-3.6.5-5.3.5-7.5 0-14.2-2.8-19.5-8.1-6.4-6.4-9.9-15.8-9.8-26.4.1-22.3 16-43.3 35.4-46.7 1.8-.3 3.6-.5 5.3-.5v-.8m0 0c-1.8 0-3.6.2-5.4.5-19.8 3.5-35.9 24.7-36 47.4-.1 20.6 12.9 35.3 30 35.3 1.8 0 3.6-.2 5.4-.5 19.7-3.5 35.8-24.7 36-47.4.1-20.6-12.9-35.3-30-35.3z" fill="url(#J)"/><path d="M-26.9 205.1l5.2 2.2-1-6.5 4.3-5.5-5.9.1-2.5-5.7-2.7 6.6-5.9 2 4.3 4-1.1 6.9 5.3-4.1z" class="f g h"/><g class="d"><use xlink:href="#T"/><path d="M-18.8 193.8l1.1.6 2.3 5.1h5l1.1.6-4.3 5.5 1 6.5-5.2-2.2-5.3 4.1-1.1-.6 1-6.9-4.2-4 5.9-2 2.7-6.7m0-.7h-.2a.78.78 0 0 0-.4.4l-2.5 6.3-5.6 1.9c-.2.1-.4.3-.5.5s0 .5.2.7l3.9 3.8-1 6.5c0 .3.1.6.4.7l1.1.6c.1 0 .2.1.3.1.2 0 .3-.1.4-.1l4.9-3.8 4.8 2.1c.1 0 .2.1.3.1.2 0 .3 0 .4-.1.2-.2.3-.4.3-.7l-.9-6.2 4.1-5.3c.1-.2.2-.4.1-.6 0-.2-.2-.4-.4-.5l-1.1-.6c-.1 0-.2-.1-.3-.1H-15l-2.1-4.7c-.1-.1-.2-.3-.3-.3l-1.1-.6c-.1-.1-.2-.1-.3-.1z"/></g><path d="M-18.5 206.8l-8.9-4.4 4.2 4 3.9 1.9.8-1.5z" class="j"/><path d="M-17.9 205.7l8.6-5.8-1.1-.5h-5.9v-.1l-1.6 2.7v3.7z" class="e"/><path d="M-23.2 206.4l-1 6.9 1.1.5.6-1.9 3.2-3.6-3.9-1.9zm5.3-4.4l1.6-2.7-1.4-5-1.1-.5-2.7 6.5 3.6 1.9v-.2z" class="k"/><path d="M-21.5 200.3l-5.9 2.1 8.9 4.4.6-1.1v-3.5l-3.6-1.9z" class="e"/><linearGradient id="K" gradientUnits="userSpaceOnUse" x1="-13.957" y1="198.981" x2="-22.51" y2="212.422"><stop offset="0" stop-color="#feb3c8"/><stop offset="1" stop-color="#fc7799"/></linearGradient><path d="M-21.9 207v-.1L-26 203l5.7-1.9s.1 0 .1-.1l2.6-6.3 2.5 5.4.1.1h5.6l-4.1 5.3.9 6.4-5-2.2h-.1l-5 3.9.8-6.6z" fill="url(#K)"/><path d="M-17.7 195l2.3 5.1c0 .1.1.1.2.1h5.3l-3.9 5.1c0 .1-.1.1 0 .2l.9 6.1-4.8-2.1h-.1c-.1 0-.1 0-.2.1l-4.8 3.7.9-6.3c0-.1 0-.2-.1-.2l-3.9-3.7 5.5-1.9c.1 0 .1-.1.2-.1l2.5-6.1m0-.7l-2.7 6.6-5.9 2 4.2 4-1 6.9 5.3-4.1 5.2 2.2-1-6.5 4.3-5.5-5.9.1-2.5-5.7z" class="l"/><path d="M-52.5 209.6l5.3 2.2-1-6.5 4.3-5.5-5.9.1-2.6-5.7-2.6 6.6-5.9 2 4.2 4-1 6.9 5.2-4.1z" class="f g h"/><g class="d"><use xlink:href="#T" x="-25.5" y="4.5"/><path d="M-44.4 198.3l1.1.6 2.3 5.1h5l1.1.6-4.3 5.5 1 6.5-5.2-2.2-5.3 4.1-1.1-.6 1-6.9-4.2-4 5.9-2 2.7-6.7m0-.7h-.2a.78.78 0 0 0-.4.4l-2.5 6.3-5.6 1.9c-.2.1-.4.3-.5.5s0 .5.2.7l3.9 3.8-1 6.5c0 .3.1.6.4.7l1.1.6c.1 0 .2.1.3.1.2 0 .3-.1.4-.1l4.9-3.8 4.8 2.1c.1 0 .2.1.3.1.2 0 .3 0 .4-.1.2-.2.3-.4.3-.7l-.9-6.2 4.1-5.3c.1-.2.2-.4.1-.6 0-.2-.2-.4-.4-.5l-1.1-.6c-.1 0-.2-.1-.3-.1h-4.5l-2.1-4.7c-.1-.1-.2-.3-.3-.3l-1.1-.6c-.1-.1-.2-.1-.3-.1z"/></g><path d="M-44 211.3l-8.9-4.4 4.2 4 3.9 1.9.8-1.5z" class="j"/><path d="M-43.4 210.2l8.6-5.8-1.2-.5h-5.8l-.1-.1-1.5 2.7v3.7z" class="e"/><path d="M-48.7 210.9l-1 6.9 1.1.5.6-1.9 3.2-3.6-3.9-1.9zm5.3-4.4l1.5-2.7-1.4-5-1.1-.5-2.6 6.5 3.6 1.9v-.2z" class="k"/><path d="M-47 204.8l-5.9 2.1 8.9 4.4.6-1.1v-3.5l-3.6-1.9z" class="e"/><linearGradient id="L" gradientUnits="userSpaceOnUse" x1="-39.46" y1="203.25" x2="-48.288" y2="217.122"><stop offset="0" stop-color="#96e6b0"/><stop offset="1" stop-color="#65c67f"/></linearGradient><path d="M-43.3 198.8l2.6 5.7 5.9-.1-4.3 5.5 1 6.6-5.2-2.3-5.3 4.1 1-6.9-4.2-4 5.9-2 2.6-6.6z" fill="url(#L)"/><linearGradient id="M" gradientUnits="userSpaceOnUse" x1="-38.935" y1="201.175" x2="-47.77" y2="217.278"><stop offset="0" stop-color="#feb3c8"/><stop offset="1" stop-color="#fc7799"/></linearGradient><path d="M-47.4 211.5v-.1l-4.1-3.9 5.7-1.9s.1 0 .1-.1l2.6-6.3 2.5 5.4.1.1h5.6L-39 210l.9 6.4-5-2.2h-.1l-5 3.9.8-6.6z" fill="url(#M)"/><path d="M-43.2 199.5l2.3 5.1c0 .1.1.1.2.1h5.3l-3.9 5.1c0 .1-.1.1 0 .2l.9 6.1-4.8-2.1h-.1c-.1 0-.1 0-.2.1l-4.8 3.7.9-6.3c0-.1 0-.2-.1-.2l-3.9-3.7 5.5-1.9c.1 0 .1-.1.2-.1l2.5-6.1m-.1-.7l-2.7 6.6-5.9 2 4.2 4-1 6.9 5.3-4.1 5.2 2.2-1-6.5 4.3-5.5-5.9.1-2.5-5.7z" class="l"/><path d="M-78.1 214.2l5.3 2.2-1-6.5 4.3-5.5h-5.9l-2.6-5.6-2.6 6.6-5.9 2 4.2 4-1 6.9 5.2-4.1z" class="f g h"/><g class="d"><path d="M-74.2 223.3h-.2l-1.1-.6c-.1-.1-.2-.2-.2-.4l1-6.7-4.1-3.9c-.1-.1-.1-.2-.1-.3s.1-.2.2-.3l5.7-2 2.6-6.4c0-.1.1-.2.2-.2h.3l1.1.6c.1 0 .1.1.2.2l2.2 4.9h5l1.1.6c.1 0 .2.1.2.2s0 .2-.1.3l-4.2 5.4.9 6.4c0 .1 0 .3-.1.3s-.1.1-.2.1h-.1l-5-2.2-5.1 4c0-.1-.1 0-.2 0z"/><path d="M-70 202.8l1.1.6 2.3 5.1h5l1.1.6-4.3 5.5 1 6.5-5.2-2.2-5.3 4.1-1.1-.6 1-6.9-4.2-4 5.9-2 2.7-6.7m0-.7h-.2a.78.78 0 0 0-.4.4l-2.5 6.3-5.6 1.9c-.2.1-.4.3-.5.5s0 .5.2.7l3.9 3.8-1 6.5c0 .3.1.6.4.7l1.1.6c.1 0 .2.1.3.1.2 0 .3-.1.4-.1l4.9-3.8 4.8 2.1c.1 0 .2.1.3.1.2 0 .3 0 .4-.1.2-.2.3-.4.3-.7l-.9-6.2 4.1-5.3c.1-.2.2-.4.1-.6 0-.2-.2-.4-.4-.5l-1.1-.6c-.1 0-.2-.1-.3-.1h-4.5l-2-4.7c-.1-.1-.2-.3-.3-.3l-1.1-.6c-.2 0-.3-.1-.4-.1z"/></g><path d="M-69.6 215.9l-8.9-4.5 4.2 4 3.9 2 .8-1.5z" class="j"/><path d="M-69 214.8l8.6-5.8-1.1-.6-5.9.1v-.1L-69 211v3.8z" class="e"/><path d="M-74.3 215.4l-1 6.9 1.1.6.6-1.9 3.2-3.6-3.9-2zm5.3-4.4l1.6-2.6-1.4-5-1.2-.6-2.6 6.6 3.6 1.8v-.2z" class="k"/><path d="M-72.6 209.4l-5.9 2 8.9 4.5.6-1.1v-3.6l-3.6-1.8z" class="e"/><linearGradient id="N" gradientUnits="userSpaceOnUse" x1="-65.046" y1="207.828" x2="-73.873" y2="221.7"><stop offset="0" stop-color="#96e6b0"/><stop offset="1" stop-color="#65c67f"/></linearGradient><path d="M-68.8 203.4l2.5 5.7 5.9-.1-4.3 5.5 1 6.6-5.2-2.3-5.3 4.1 1-6.9-4.2-4 5.9-2 2.7-6.6z" fill="url(#N)"/><linearGradient id="O" gradientUnits="userSpaceOnUse" x1="-64.522" y1="205.752" x2="-73.357" y2="221.855"><stop offset="0" stop-color="#feb3c8"/><stop offset="1" stop-color="#fc7799"/></linearGradient><path d="M-73 216v-.1l-4.1-3.8 5.7-1.9s.1 0 .1-.1l2.6-6.3 2.5 5.4.1.1h5.6l-4.1 5.3.9 6.4-5-2.2h-.1l-5 3.9.8-6.7z" fill="url(#O)"/><path d="M-68.8 204l2.3 5.1c0 .1.1.1.2.1h5.3l-3.9 5.1c0 .1-.1.1 0 .2l.9 6.1-4.8-2.1h-.1c-.1 0-.1 0-.2.1l-4.8 3.7.9-6.3c0-.1 0-.2-.1-.2l-3.8-3.7 5.5-1.9c.1 0 .1-.1.2-.1l2.4-6.1m0-.6l-2.7 6.6-5.9 2 4.2 4-1 6.9 5.3-4.1 5.2 2.2-1-6.5 4.3-5.5-5.9.1-2.5-5.7z" class="l"/><g class="d"><path d="M-65.2 253.5l50.3-8.9v-1.5l-50.3 8.9zm0 30.6l50.3-8.9v-1.5l-50.3 8.9z" opacity=".5" class="f"/><path d="M-58.4 258.9c1.5-.3 3-.1 4.4.4l-1.2 3.7c-.5-.2-1-.3-1.6-.4-.5-.1-1.1-.1-1.7 0-.9.2-1.6.7-2.1 1.7-.5.9-.8 2.2-.8 3.7 0 3.1 1 4.5 3.1 4.2.6-.1 1.2-.3 1.8-.6l1.8-1v3.7c-1.2.8-2.5 1.4-4 1.6-2.1.4-3.8-.1-4.9-1.3s-1.7-3.2-1.7-5.9c0-1.7.3-3.2.9-4.6s1.4-2.5 2.4-3.4c1-1 2.2-1.6 3.6-1.8zm17.4-1c1.2 1.2 1.7 3.2 1.7 6 0 2.7-.6 4.9-1.8 6.6-1.2 1.6-2.9 2.6-5.1 3s-3.9 0-5.1-1.3c-1.2-1.2-1.8-3.2-1.7-5.9 0-2.7.6-4.9 1.8-6.5s2.9-2.7 5.2-3c2.2-.5 3.9-.1 5 1.1zm-3 10.4c.5-.9.7-2.1.7-3.7s-.2-2.8-.7-3.5-1.2-1-2.1-.8c-1.9.3-2.9 2.1-2.9 5.3 0 3.1.9 4.6 2.8 4.2 1-.2 1.7-.7 2.2-1.5m16.9-12.7c1.2 1.1 1.8 2.9 1.8 5.5 0 2.7-.7 4.9-2 6.6s-3.1 2.8-5.5 3.2l-4.6.8.1-16.3 4.9-.9c2.3-.4 4.1 0 5.3 1.1zm-3 10c.5-.9.8-2.1.8-3.7 0-1.5-.2-2.6-.8-3.2-.5-.6-1.3-.9-2.3-.7l-1.1.2-.1 9.1.9-.2c1.2-.1 2.1-.6 2.6-1.5m15.2-14.2v3.5l-4.6.9v2.5l4.2-.7v3.5l-4.2.8v3l4.5-.8v3.6l-8.4 1.5.1-16.3z"/></g><defs ><path id="Q" d="M-80.3 187c-.5 0-.9-.2-1.3-.5-.4-.4-.6-1-.6-1.7 0-1.4 1-2.7 2.2-2.9h.3c.5 0 .9.2 1.3.5.4.4.6 1 .6 1.7 0 1.4-1 2.7-2.2 2.9h-.3z"/><path id="R" d="M-79.7 182.1c1 0 1.7.8 1.7 2 0 1.3-.9 2.5-2 2.7h-.3c-1 0-1.7-.8-1.7-2 0-1.3.9-2.5 2-2.7h.3m0-.4h-.4c-1.3.2-2.4 1.6-2.4 3.1 0 .7.2 1.4.7 1.8.4.4.9.6 1.4.6h.4c1.3-.2 2.4-1.6 2.4-3.1 0-.7-.2-1.4-.7-1.8-.3-.4-.8-.6-1.4-.6z"/><path id="S" d="M-52.5 215.2c19.7-3.5 35.6 12.1 35.5 34.8s-16.2 43.9-36 47.4c-19.7 3.5-35.6-12.1-35.5-34.8.2-22.7 16.3-43.9 36-47.4z"/><path id="T" d="M-23.1 214.2h-.2l-1.1-.6c-.1-.1-.2-.2-.2-.4l1-6.7-4.1-3.9c-.1-.1-.1-.2-.1-.3s.1-.2.2-.3l5.7-2 2.6-6.4c0-.1.1-.2.2-.2h.3l1.1.6c.1 0 .1.1.2.2l2.2 4.9h5l1.1.6c.1 0 .2.1.2.2s0 .2-.1.3l-4.2 5.4.9 6.4c0 .1 0 .3-.1.3s-.1.1-.2.1h-.1l-5-2.2-5.1 4h-.2z"/></defs></svg>